<svg width="600" height="180" viewBox="0 0 600 180" fill="none" xmlns="http://www.w3.org/2000/svg">
<g clip-path="url(#clip0_2_2)">
<path d="M21.5114 29.4773V17.5455H126.98V29.4773H80.8864V163H67.6051V29.4773H21.5114ZM270.073 90.2727C270.073 105.424 267.374 118.611 261.977 129.832C256.579 141.007 249.145 149.671 239.675 155.827C230.253 161.935 219.41 164.989 207.147 164.989C194.884 164.989 184.017 161.935 174.548 155.827C165.125 149.671 157.715 141.007 152.317 129.832C146.967 118.611 144.292 105.424 144.292 90.2727C144.292 75.1212 146.967 61.9583 152.317 50.7841C157.715 39.5625 165.149 30.8977 174.619 24.7898C184.088 18.6345 194.931 15.5568 207.147 15.5568C219.41 15.5568 230.253 18.6345 239.675 24.7898C249.145 30.8977 256.579 39.5625 261.977 50.7841C267.374 61.9583 270.073 75.1212 270.073 90.2727ZM257.147 90.2727C257.147 77.2519 254.969 66.1013 250.613 56.821C246.257 47.4934 240.315 40.3674 232.786 35.4432C225.258 30.5189 216.711 28.0568 207.147 28.0568C197.63 28.0568 189.107 30.5189 181.579 35.4432C174.05 40.3674 168.085 47.4697 163.681 56.75C159.325 66.0303 157.147 77.2045 157.147 90.2727C157.147 103.294 159.325 114.444 163.681 123.724C168.037 133.005 173.979 140.131 181.508 145.102C189.036 150.027 197.583 152.489 207.147 152.489C216.711 152.489 225.258 150.027 232.786 145.102C240.362 140.178 246.328 133.076 250.684 123.795C255.04 114.468 257.194 103.294 257.147 90.2727ZM347.08 163H295.517V17.5455H347.506C362.136 17.5455 374.731 20.4574 385.29 26.2812C395.848 32.0578 403.969 40.3674 409.651 51.2102C415.38 62.053 418.244 75.0265 418.244 90.1307C418.244 105.282 415.38 118.303 409.651 129.193C403.969 140.083 395.801 148.44 385.148 154.264C374.542 160.088 361.852 163 347.08 163ZM326.27 136.651H345.801C354.892 136.651 362.539 135.041 368.741 131.821C374.991 128.554 379.679 123.511 382.804 116.693C385.976 109.828 387.562 100.973 387.562 90.1307C387.562 79.3826 385.976 70.5994 382.804 63.7812C379.679 56.9631 375.015 51.9441 368.812 48.7244C362.61 45.5047 354.963 43.8949 345.872 43.8949H326.27V136.651ZM574.69 90.2727C574.69 106.134 571.683 119.629 565.67 130.756C559.704 141.883 551.56 150.382 541.238 156.253C530.963 162.077 519.41 164.989 506.579 164.989C493.653 164.989 482.052 162.053 471.778 156.182C461.503 150.311 453.383 141.812 447.417 130.685C441.451 119.558 438.468 106.087 438.468 90.2727C438.468 74.411 441.451 60.9167 447.417 49.7898C453.383 38.6629 461.503 30.1875 471.778 24.3636C482.052 18.4924 493.653 15.5568 506.579 15.5568C519.41 15.5568 530.963 18.4924 541.238 24.3636C551.56 30.1875 559.704 38.6629 565.67 49.7898C571.683 60.9167 574.69 74.411 574.69 90.2727ZM543.511 90.2727C543.511 79.9981 541.972 71.3333 538.894 64.2784C535.864 57.2235 531.579 51.8731 526.039 48.2273C520.499 44.5814 514.013 42.7585 506.579 42.7585C499.145 42.7585 492.658 44.5814 487.119 48.2273C481.579 51.8731 477.27 57.2235 474.192 64.2784C471.162 71.3333 469.647 79.9981 469.647 90.2727C469.647 100.547 471.162 109.212 474.192 116.267C477.27 123.322 481.579 128.672 487.119 132.318C492.658 135.964 499.145 137.787 506.579 137.787C514.013 137.787 520.499 135.964 526.039 132.318C531.579 128.672 535.864 123.322 538.894 116.267C541.972 109.212 543.511 100.547 543.511 90.2727Z" fill="#211414"/>
</g>
<defs>
<clipPath id="clip0_2_2">
<rect width="600" height="180" fill="white"/>
</clipPath>
</defs>
</svg>
